<?xml version="1.0" encoding="utf-8"?>
<!-- Generator: Adobe Illustrator 23.0.5, SVG Export Plug-In . SVG Version: 6.00 Build 0)  -->
<svg version="1.1" id="Layer_1" xmlns="http://www.w3.org/2000/svg" xmlns:xlink="http://www.w3.org/1999/xlink" x="0px" y="0px"
	 viewBox="0 0 480.89 192.5" style="enable-background:new 0 0 480.89 192.5;" xml:space="preserve">
<style type="text/css">
	.st0{fill:none;stroke:#6D6E71;stroke-miterlimit:10;}
	.st1{fill:#6D6E71;}
	.st2{font-family:'MyriadPro-Regular';}
	.st3{font-size:5.7px;}
	.st4{fill:#FBB265;}
	.st5{fill:#A2C93A;}
	.st6{fill:#F68830;}
	.st7{fill:#2EB34B;}
	.st8{fill:#F16A44;}
	.st9{font-family:'CamphorW01-Light';}
	.st10{font-size:7px;}
	.st11{font-size:6px;}
	.st12{font-size:4px;}
</style>
<g>
	<g>
		<line class="st0" x1="25.83" y1="153.17" x2="461.88" y2="153.17"/>
		<g>
			<g>
				<line class="st0" x1="25.83" y1="153.17" x2="25.83" y2="149.66"/>
				<line class="st0" x1="74.28" y1="153.17" x2="74.28" y2="149.66"/>
				<line class="st0" x1="122.73" y1="153.17" x2="122.73" y2="149.66"/>
				<line class="st0" x1="171.18" y1="153.17" x2="171.18" y2="149.66"/>
				<line class="st0" x1="219.63" y1="153.17" x2="219.63" y2="149.66"/>
				<line class="st0" x1="268.08" y1="153.17" x2="268.08" y2="149.66"/>
				<line class="st0" x1="316.53" y1="153.17" x2="316.53" y2="149.66"/>
				<line class="st0" x1="364.98" y1="153.17" x2="364.98" y2="149.66"/>
				<line class="st0" x1="413.43" y1="153.17" x2="413.43" y2="149.66"/>
				<line class="st0" x1="461.88" y1="153.17" x2="461.88" y2="149.66"/>
			</g>
			<g>
			</g>
		</g>
	</g>
	<g>
		<g>
			<text transform="matrix(1 0 0 1 16.0894 158.0928)" class="st1 st2 st3">0</text>
			<text transform="matrix(1 0 0 1 13.165 130.0679)" class="st1 st2 st3">20</text>
			<text transform="matrix(1 0 0 1 13.165 102.0425)" class="st1 st2 st3">40</text>
			<text transform="matrix(1 0 0 1 13.165 74.0176)" class="st1 st2 st3">60</text>
			<text transform="matrix(1 0 0 1 13.165 45.9927)" class="st1 st2 st3">80</text>
			<text transform="matrix(1 0 0 1 10.2412 17.9678)" class="st1 st2 st3">100</text>
		</g>
		<line class="st0" x1="25.83" y1="153.17" x2="25.83" y2="13.04"/>
		<g>
			<g>
				<line class="st0" x1="25.83" y1="153.17" x2="36.73" y2="153.17"/>
				<line class="st0" x1="25.83" y1="125.14" x2="36.73" y2="125.14"/>
				<line class="st0" x1="25.83" y1="97.12" x2="36.73" y2="97.12"/>
				<line class="st0" x1="25.83" y1="69.09" x2="36.73" y2="69.09"/>
				<line class="st0" x1="25.83" y1="41.07" x2="36.73" y2="41.07"/>
				<line class="st0" x1="25.83" y1="13.04" x2="36.73" y2="13.04"/>
			</g>
			<g>
			</g>
		</g>
	</g>
	<g>
		<g>
			<g>
				<polygon class="st4" points="62.07,153.17 69.04,153.17 69.04,153.17 62.07,153.17 				"/>
				<polygon class="st4" points="110.52,153.17 117.49,153.17 117.49,153.17 110.52,153.17 				"/>
				<rect x="158.97" y="153.03" class="st4" width="6.98" height="0.14"/>
				<rect x="207.42" y="151.63" class="st4" width="6.98" height="1.54"/>
				<rect x="255.87" y="148.26" class="st4" width="6.98" height="4.9"/>
				<rect x="304.32" y="147.28" class="st4" width="6.98" height="5.89"/>
				<rect x="352.77" y="136.35" class="st4" width="6.98" height="16.82"/>
				<rect x="401.22" y="128.78" class="st4" width="6.98" height="24.38"/>
				<rect x="449.67" y="59.56" class="st4" width="6.98" height="93.6"/>
			</g>
		</g>
		<g>
			<g>
				<rect x="54.32" y="152.89" class="st5" width="6.98" height="0.28"/>
				<rect x="102.77" y="151.63" class="st5" width="6.98" height="1.54"/>
				<rect x="151.22" y="150.64" class="st5" width="6.98" height="2.52"/>
				<rect x="199.67" y="145.6" class="st5" width="6.98" height="7.57"/>
				<rect x="248.12" y="138.17" class="st5" width="6.98" height="14.99"/>
				<rect x="296.57" y="136.77" class="st5" width="6.98" height="16.39"/>
				<rect x="345.02" y="120.66" class="st5" width="6.98" height="32.51"/>
				<rect x="393.47" y="112.25" class="st5" width="6.98" height="40.92"/>
				<rect x="441.92" y="52.98" class="st5" width="6.98" height="100.19"/>
			</g>
		</g>
		<g>
			<g>
				<rect x="46.56" y="152.89" class="st6" width="6.98" height="0.28"/>
				<rect x="95.01" y="151.63" class="st6" width="6.98" height="1.54"/>
				<rect x="143.46" y="150.64" class="st6" width="6.98" height="2.52"/>
				<rect x="191.91" y="145.32" class="st6" width="6.98" height="7.85"/>
				<rect x="240.36" y="137.47" class="st6" width="6.98" height="15.69"/>
				<rect x="288.81" y="136.07" class="st6" width="6.98" height="17.1"/>
				<rect x="337.26" y="119.4" class="st6" width="6.98" height="33.77"/>
				<rect x="385.71" y="110.85" class="st6" width="6.98" height="42.32"/>
				<rect x="434.16" y="49.33" class="st6" width="6.98" height="103.83"/>
			</g>
		</g>
		<g>
			<g>
				<rect x="38.81" y="152.61" class="st7" width="6.98" height="0.56"/>
				<rect x="87.26" y="150.78" class="st7" width="6.98" height="2.38"/>
				<rect x="135.71" y="149.38" class="st7" width="6.98" height="3.78"/>
				<rect x="184.16" y="142.52" class="st7" width="6.98" height="10.65"/>
				<rect x="232.61" y="133.13" class="st7" width="6.98" height="20.04"/>
				<rect x="281.06" y="131.59" class="st7" width="6.98" height="21.58"/>
				<rect x="329.51" y="113.09" class="st7" width="6.98" height="40.08"/>
				<rect x="377.96" y="103.84" class="st7" width="6.98" height="49.32"/>
				<rect x="426.41" y="44.57" class="st7" width="6.98" height="108.6"/>
			</g>
		</g>
		<g>
			<g>
				<rect x="31.06" y="152.33" class="st8" width="6.98" height="0.84"/>
				<rect x="79.51" y="150.08" class="st8" width="6.98" height="3.08"/>
				<rect x="127.96" y="148.26" class="st8" width="6.98" height="4.9"/>
				<rect x="176.41" y="139.85" class="st8" width="6.98" height="13.31"/>
				<rect x="224.86" y="129.07" class="st8" width="6.98" height="24.1"/>
				<rect x="273.31" y="127.1" class="st8" width="6.98" height="26.06"/>
				<rect x="321.76" y="106.36" class="st8" width="6.98" height="46.8"/>
				<rect x="370.21" y="96.42" class="st8" width="6.98" height="56.75"/>
				<rect x="418.66" y="38.26" class="st8" width="6.98" height="114.9"/>
			</g>
		</g>
	</g>
	<g>
		<g>
		</g>
		<g>
		</g>
		<g>
		</g>
		<g>
		</g>
		<g>
		</g>
	</g>
	<g>
		<text transform="matrix(1 0 0 1 413.7119 165.2085)"><tspan x="0" y="0" class="st1 st2 st3">$5.00/</tspan><tspan x="14.83" y="0" class="st1 st2 st3">D</tspan><tspan x="18.55" y="0" class="st1 st2 st3">A</tspan><tspan x="21.58" y="0" class="st1 st2 st3">Y 2005 PPP</tspan></text>
		<text transform="matrix(1 0 0 1 377.2178 165.2085)" class="st1 st2 st3">200% NPL</text>
		<text transform="matrix(1 0 0 1 316.208 165.2085)"><tspan x="0" y="0" class="st1 st2 st3"> $2.50/</tspan><tspan x="16.04" y="0" class="st1 st2 st3">D</tspan><tspan x="19.75" y="0" class="st1 st2 st3">A</tspan><tspan x="22.79" y="0" class="st1 st2 st3">Y 2005 PPP</tspan></text>
		<text transform="matrix(1 0 0 1 280.3174 165.2085)" class="st1 st2 st3">150% NPL</text>
		<text transform="matrix(1 0 0 1 219.9121 165.2085)"><tspan x="0" y="0" class="st1 st2 st3">$2.00/</tspan><tspan x="14.83" y="0" class="st1 st2 st3">D</tspan><tspan x="18.55" y="0" class="st1 st2 st3">A</tspan><tspan x="21.58" y="0" class="st1 st2 st3">Y 2005 PPP</tspan></text>
		<text transform="matrix(1 0 0 1 182.4629 165.2085)"><tspan x="0" y="0" class="st1 st2 st3">$3.10/</tspan><tspan x="14.83" y="0" class="st1 st2 st3">D</tspan><tspan x="18.55" y="0" class="st1 st2 st3">A</tspan><tspan x="21.58" y="0" class="st1 st2 st3">Y </tspan><tspan x="1.94" y="6.84" class="st1 st2 st3">2011 PPP</tspan></text>
		<text transform="matrix(1 0 0 1 142.2148 165.2085)" class="st1 st2 st3">NPL</text>
		<text transform="matrix(1 0 0 1 85.563 165.2085)"><tspan x="0" y="0" class="st1 st2 st3">$1.25/</tspan><tspan x="14.83" y="0" class="st1 st2 st3">D</tspan><tspan x="18.55" y="0" class="st1 st2 st3">A</tspan><tspan x="21.58" y="0" class="st1 st2 st3">Y </tspan><tspan x="1.94" y="6.84" class="st1 st2 st3">2005 PPP</tspan></text>
		<text transform="matrix(1 0 0 1 37.1128 165.2085)"><tspan x="0" y="0" class="st1 st2 st3">$1.90/</tspan><tspan x="14.83" y="0" class="st1 st2 st3">D</tspan><tspan x="18.55" y="0" class="st1 st2 st3">A</tspan><tspan x="21.58" y="0" class="st1 st2 st3">Y </tspan><tspan x="1.33" y="6.84" class="st1 st2 st3">2011 PPP </tspan></text>
	</g>
</g>
<polyline class="st8" points="23.37,182.08 23.37,188.89 16.56,188.89 16.56,182.08 "/>
<text transform="matrix(1 0 0 1 28.6331 187.8934)" class="st9 st10">Loan cycle 1 </text>
<polyline class="st7" points="83.87,181.66 83.87,188.48 77.06,188.48 77.06,181.66 "/>
<text transform="matrix(1 0 0 1 89.3425 187.4765)" class="st9 st10">Loan cycle 2</text>
<polyline class="st6" points="146.12,181.66 146.12,188.48 139.31,188.48 139.31,181.66 "/>
<text transform="matrix(1 0 0 1 151.5925 187.4765)" class="st9 st10">Loan cycle 3</text>
<polyline class="st5" points="205.55,181.66 205.55,188.48 198.74,188.48 198.74,181.66 "/>
<text transform="matrix(1 0 0 1 211.0225 187.4765)" class="st9 st10">Loan cycle 4</text>
<polyline class="st4" points="267.8,181.66 267.8,188.48 260.99,188.48 260.99,181.66 "/>
<text transform="matrix(1 0 0 1 273.2725 187.4765)" class="st9 st10">Loan cycle 5</text>
<text transform="matrix(1 0 0 1 11 11)" class="st2 st11">%</text>
<text transform="matrix(0 -1 1 0 35.9365 150.9731)" class="st1 st2 st12">0.6%</text>
<text transform="matrix(0 -1 1 0 51.1165 151.3335)" class="st1 st2 st12">0.2%</text>
<text transform="matrix(0 -1 1 0 43.7965 150.9731)" class="st1 st2 st12">0.4%</text>
<text transform="matrix(0 -1 1 0 58.7965 150.9731)" class="st1 st2 st12">0.2%</text>
<text transform="matrix(0 -1 1 0 66.7165 151.3335)" class="st1 st2 st12">0.0%</text>
<text transform="matrix(0 -1 1 0 83.9365 148.6929)" class="st1 st2 st12">2.2%</text>
<text transform="matrix(0 -1 1 0 99.1165 149.0532)" class="st1 st2 st12">1.1%</text>
<text transform="matrix(0 -1 1 0 91.7965 148.6929)" class="st1 st2 st12">1.7%</text>
<text transform="matrix(0 -1 1 0 106.7965 148.6929)" class="st1 st2 st12">1.1%</text>
<text transform="matrix(0 -1 1 0 114.7165 149.0532)" class="st1 st2 st12">0.0%</text>
<text transform="matrix(0 -1 1 0 132.1765 146.2925)" class="st1 st2 st12">3.5%</text>
<text transform="matrix(0 -1 1 0 147.3565 146.6528)" class="st1 st2 st12">1.8%</text>
<text transform="matrix(0 -1 1 0 140.0365 146.2925)" class="st1 st2 st12">2.7%</text>
<text transform="matrix(0 -1 1 0 155.0365 146.2925)" class="st1 st2 st12">1.8%</text>
<text transform="matrix(0 -1 1 0 162.9565 146.6528)" class="st1 st2 st12">0.1%</text>
<text transform="matrix(0 -1 1 0 326.3365 103.5728)" class="st1 st2 st12">33.4%</text>
<text transform="matrix(0 -1 1 0 341.9965 118.3335)" class="st1 st2 st12">24.1%</text>
<text transform="matrix(0 -1 1 0 333.7165 110.7729)" class="st1 st2 st12">28.6%</text>
<text transform="matrix(0 -1 1 0 349.9165 119.0532)" class="st1 st2 st12">23.2%</text>
<text transform="matrix(0 -1 1 0 358.3165 133.3335)" class="st1 st2 st12">12%</text>
<text transform="matrix(0 -1 1 0 375.2961 93.7329)" class="st1 st2 st12">40.5%</text>
<text transform="matrix(0 -1 1 0 390.4764 108.4937)" class="st1 st2 st12">30.2%</text>
<text transform="matrix(0 -1 1 0 382.6765 101.7729)" class="st1 st2 st12">35.2%</text>
<text transform="matrix(0 -1 1 0 398.1568 109.813)" class="st1 st2 st12">29.2%</text>
<text transform="matrix(0 -1 1 0 406.0768 126.853)" class="st1 st2 st12">17.4%</text>
<text transform="matrix(0 -1 1 0 423.0565 35.8931)" class="st1 st2 st12">82.0%</text>
<text transform="matrix(0 -1 1 0 438.9565 48.1333)" class="st1 st2 st12">74.1%</text>
<text transform="matrix(0 -1 1 0 430.917 42.6138)" class="st1 st2 st12">77.5%</text>
<text transform="matrix(0 -1 1 0 446.6365 51.7329)" class="st1 st2 st12">1.1.5</text>
<text transform="matrix(0 -1 1 0 455.0365 57.4937)" class="st1 st2 st12">66.8%</text>
<text transform="matrix(0 -1 1 0 277.9765 125.7729)" class="st1 st2 st12">18.6%</text>
<text transform="matrix(0 -1 1 0 293.8765 135.1333)" class="st1 st2 st12">12.2%</text>
<text transform="matrix(0 -1 1 0 285.8365 129.5532)" class="st1 st2 st12">15.4%</text>
<text transform="matrix(0 -1 1 0 301.1965 135.9136)" class="st1 st2 st12">11.7%</text>
<text transform="matrix(0 -1 1 0 309.2065 144.0737)" class="st1 st2 st12">4.2%</text>
<text transform="matrix(0 -1 1 0 181.2567 138.7935)" class="st1 st2 st12">9.5%</text>
<text transform="matrix(0 -1 1 0 196.4368 144.0737)" class="st1 st2 st12">5.6%</text>
<text transform="matrix(0 -1 1 0 189.1166 140.5933)" class="st1 st2 st12">7.6%</text>
<text transform="matrix(0 -1 1 0 204.1167 144.0737)" class="st1 st2 st12">5.4%</text>
<text transform="matrix(0 -1 1 0 229.4967 127.9937)" class="st1 st2 st12">17.2%</text>
<text transform="matrix(0 -1 1 0 245.1568 135.9136)" class="st1 st2 st12">11.2%</text>
<text transform="matrix(0 -1 1 0 237.8368 131.353)" class="st1 st2 st12">14.3%</text>
<text transform="matrix(0 -1 1 0 253.3167 135.9136)" class="st1 st2 st12">10.7%</text>
<text transform="matrix(0 -1 1 0 212.0367 150.1938)" class="st1 st2 st12">1.1%</text>
<text transform="matrix(0 -1 1 0 261.1168 147.1938)" class="st1 st2 st12">3.5%</text>
</svg>
